<svg xmlns="http://www.w3.org/2000/svg" viewBox="0 0 100 100" width="100" height="100" role="img" aria-label="Delvora Digital Studio mark">
  <defs>
    <linearGradient id="delvoraMarkGrad" x1="0" y1="0" x2="0" y2="1">
      <stop offset="0" stop-color="#F8A0C0"/>
      <stop offset="0.55" stop-color="#E8497A"/>
      <stop offset="1" stop-color="#B81E5B"/>
    </linearGradient>
  </defs>
  <g fill="none" stroke="url(#delvoraMarkGrad)" stroke-linecap="butt">
    <!-- Outer ring: 4 arcs with gaps at top / right / bottom / left -->
    <path stroke-width="13" d="M52.65 12.09 A38 38 0 0 1 87.91 47.35"/>
    <path stroke-width="13" d="M87.91 52.65 A38 38 0 0 1 52.65 87.91"/>
    <path stroke-width="13" d="M47.35 87.91 A38 38 0 0 1 12.09 52.65"/>
    <path stroke-width="13" d="M12.09 47.35 A38 38 0 0 1 47.35 12.09"/>
    <!-- Inner ring: 2 arcs (left + right halves) with gaps at top / bottom -->
    <path stroke-width="9" d="M52.51 26.13 A24 24 0 0 1 52.51 73.87"/>
    <path stroke-width="9" d="M47.49 73.87 A24 24 0 0 1 47.49 26.13"/>
  </g>
</svg>
